<svg class="group" height="32" width="32"  viewBox="0 0 26 26" fill="#111" xmlns="http://www.w3.org/2000/svg"><path class="fill-sub transition-all delay-50 duration-200 group-hover:fill-body" fill-rule="evenodd" clip-rule="evenodd" d="M0.5 12.9141C0.5 6.0105 6.09644 0.414062 13 0.414062C19.9036 0.414062 25.5 6.0105 25.5 12.9141C25.5 19.8176 19.9036 25.4141 13 25.4141C6.09644 25.4141 0.5 19.8176 0.5 12.9141ZM12.6256 10.5742L12.6519 11.0067L12.2147 10.9538C10.6234 10.7508 9.23315 10.0622 8.05278 8.9059L7.47571 8.33213L7.32707 8.75584C7.01231 9.70034 7.21341 10.6978 7.86917 11.3687C8.21891 11.7394 8.14022 11.7924 7.53691 11.5717C7.32707 11.5011 7.14346 11.4481 7.12597 11.4746C7.06477 11.5364 7.27461 12.3396 7.44074 12.6574C7.66807 13.0988 8.13147 13.5313 8.63859 13.7873L9.06703 13.9903L8.5599 13.9991C8.07027 13.9991 8.05278 14.008 8.10524 14.1933C8.28011 14.7671 8.97085 15.3762 9.74027 15.641L10.2824 15.8263L9.81022 16.1088C9.11074 16.5149 8.28885 16.7444 7.46697 16.762C7.07351 16.7708 6.75 16.8062 6.75 16.8326C6.75 16.9209 7.81671 17.4152 8.43749 17.6094C10.2999 18.1832 12.512 17.936 14.1732 16.9562C15.3536 16.2589 16.534 14.873 17.0848 13.5313C17.3821 12.8163 17.6794 11.5099 17.6794 10.8832C17.6794 10.4771 17.7056 10.4242 18.1952 9.93867C18.4838 9.6562 18.7548 9.34725 18.8073 9.25898C18.8947 9.09127 18.886 9.09127 18.44 9.24133C17.6969 9.50614 17.5919 9.47083 17.9592 9.07361C18.2302 8.79114 18.5537 8.27917 18.5537 8.12911C18.5537 8.10263 18.4226 8.14677 18.2739 8.22621C18.1165 8.31448 17.7668 8.44689 17.5045 8.52633L17.0323 8.67639L16.6039 8.3851C16.3678 8.22621 16.0356 8.04967 15.8607 7.9967C15.4148 7.87312 14.7328 7.89078 14.3306 8.03201C13.2377 8.42923 12.5469 9.45318 12.6256 10.5742Z" fill="#111"></path></svg>