<svg width="153" height="43" fill="none" xmlns="http://www.w3.org/2000/svg"><g clip-path="url(#a)" fill="#000"><path d="M51.18 11.895H38.66v5.53h5.36v3.3c-1.13.75-2.58 1.13-4.35 1.13-1.1 0-2.08-.2-2.98-.58-.9-.38-1.68-.88-2.35-1.55a6.682 6.682 0 0 1-1.53-2.38c-.38-.95-.55-1.95-.55-3.03v-.08c0-1.05.18-2.03.55-2.93.35-.9.85-1.7 1.48-2.38.63-.65 1.35-1.2 2.2-1.58.83-.4 1.75-.58 2.73-.58 1.35 0 2.53.2 3.55.65 1.03.45 2.03 1.08 3 1.9l4.43-5.33c-1.45-1.23-3.05-2.2-4.8-2.9-1.73-.68-3.81-1.03-6.24-1.03-2.08 0-4.03.38-5.83 1.1-1.8.73-3.33 1.73-4.63 3a13.982 13.982 0 0 0-4.12 9.83L18.84.405h-7.26L0 27.785h7.93l1.93-4.85h10.49l1.98 4.85h8.08l-1.33-3.15c1.27 1.13 2.72 2.02 4.41 2.67 1.8.68 3.75 1.03 5.88 1.03 2.48 0 4.7-.4 6.68-1.2 1.45-.59 2.74-1.28 3.9-2.08v2.73H71.6v-5.93H51.18v-9.96zm-39.09 5.2 3.05-7.71 3.03 7.71h-6.08z"/><path d="M75.55 11.115H53.9v5.96h21.65v-5.96z"/><path d="m144.59.605-5.63 9.91-5.61-9.91h-8.58l.96 1.58c-.3-.19-.61-.38-.93-.55-.95-.5-1.98-.9-3.13-1.18-1.13-.25-2.4-.4-3.8-.4-2.08 0-3.98.38-5.73 1.1-1.75.72-3.25 1.73-4.53 3a14.479 14.479 0 0 0-3.46 5.82V.605h-7.41v14.36L85.53.605H57.87v5.93h20.6v21.25h7.43v-14.92l11.64 14.91h6.61v-9.26c.14.46.31.91.5 1.35.73 1.73 1.73 3.23 2.98 4.48 1.25 1.25 2.75 2.23 4.45 2.93 1.7.7 3.53 1.05 5.48 1.05 1.5 0 2.85-.15 4.05-.48 1.2-.3 2.3-.73 3.25-1.28.98-.55 1.85-1.2 2.6-1.95.78-.75 1.48-1.55 2.13-2.43l-5.68-4.05c-.4.5-.83.95-1.25 1.35-.43.4-.88.75-1.35 1.05-.5.3-1.03.53-1.6.68-.58.15-1.23.23-1.93.23-.95 0-1.83-.18-2.63-.55-.78-.38-1.45-.9-2.03-1.55-.58-.63-1.03-1.4-1.35-2.3-.33-.9-.48-1.85-.48-2.85v-.08c0-.98.15-1.93.48-2.8.33-.88.78-1.65 1.35-2.28.58-.65 1.25-1.18 2.03-1.55.8-.38 1.68-.55 2.63-.55 1.33 0 2.45.28 3.38.85.93.58 1.78 1.35 2.58 2.33l4.63-3.58 6.74 11.09v10.16h7.58v-10.29L153 .605h-8.41zm-28.53 35.94c-.33-.35-.75-.63-1.23-.8-.48-.2-.98-.3-1.55-.3-.55 0-1.08.1-1.55.3-.48.18-.88.45-1.23.8-.35.33-.63.73-.83 1.2-.2.45-.3.93-.3 1.45v.03c0 .53.1 1 .3 1.45.2.45.48.85.8 1.2.35.33.78.6 1.25.8.48.18.98.28 1.53.28.58 0 1.08-.1 1.55-.28.48-.2.9-.48 1.25-.83.35-.33.63-.73.83-1.2.2-.45.28-.93.28-1.45v-.03c0-.5-.08-1-.28-1.45-.19-.45-.47-.85-.82-1.17zm-.92 2.67c0 .25-.05.5-.15.75-.08.23-.2.43-.38.6-.15.18-.35.33-.58.43-.23.1-.48.15-.75.15-.28 0-.53-.05-.75-.15-.23-.13-.43-.25-.6-.43-.15-.2-.28-.4-.38-.63-.08-.25-.13-.48-.13-.75v-.03c0-.25.05-.5.13-.73.1-.25.23-.45.38-.63.18-.18.35-.33.58-.43.23-.1.48-.15.75-.15.28 0 .53.05.75.15.25.13.43.25.6.45.18.18.3.38.38.6.1.25.15.5.15.75v.05zm-49.05.93-1.65-4.56h-2.23l2.93 7.29h1.85l2.93-7.29h-2.18l-1.65 4.56zm-24.85-4.56h-2v7.24h5.5v-1.78h-3.5v-5.46zm-12.09 4.38h3.48v-1.6h-3.48v-1.07h3.86v-1.71H27.2v7.24h5.86v-1.73h-3.91v-1.13zm23.58 0h3.45v-1.6h-3.45v-1.07h3.83v-1.71h-5.81v7.24h5.86v-1.73h-3.88v-1.13zm50.45-4.38h-2.03v7.23h2.03v-7.23zm-14.44 1.76h2.17v5.48h2.01v-5.48h2.17v-1.76h-6.35v1.76zm-10.46-1.81-3.08 7.28h2.1l.53-1.3h2.78l.55 1.3h2.13l-3.08-7.28h-1.93zm.15 4.43.8-2.05.8 2.05h-1.6zm49.8-.57-2.98-3.81h-1.88v7.24h1.98v-3.98l3.08 3.98h1.77v-7.24h-1.97v3.81z"/></g><defs><clipPath id="a"><path fill="#fff" transform="translate(0 .055)" d="M0 0h153v42.89H0z"/></clipPath></defs></svg>