<svg width="125" height="37" viewBox="0 0 125 37" fill="black" xmlns="http://www.w3.org/2000/svg" class="hide to-top"><path d="M35.199 16.527l6.87.08a212.115 212.115 0 00-3.26-10.183h-.064c-.878 2.313-2.412 6.473-3.546 10.103zm-5.784 6.184c1.838-.032 2.221-.707 2.732-2.458 1.614-5.316 4.81-13.941 6.12-16.88l2.54.032c1.245 2.971 4.105 11.677 5.559 17.025.48 1.767.75 2.441 2.684 2.522l-.016.995-7.637-.096.016-.996c1.87-.032 2.221-.24 1.806-2.007a88.89 88.89 0 00-.72-2.763l-7.748-.096-.335 1.204c-.799 2.86-.511 3.518 1.645 3.598l-.016.996-6.646-.08.016-.996zm25.499-5.734c-2.205-.787-3.787-2.008-3.77-4.32.031-2.137 1.677-4.37 5.32-4.337 2.364.032 4.824 1.14 4.808 3.02-.016 1.075-.783 1.477-1.645 1.525-.272-2.2-1.678-3.212-3.228-3.228-1.581-.016-2.716.9-2.732 2.28-.016 1.237.88 2.008 2.86 2.699l1.454.514c2.269.787 3.674 2.12 3.642 4.24-.031 2.875-2.268 4.626-5.974 4.577-2.365-.032-5.177-1.092-5.145-3.083.016-1.173.83-1.655 1.774-1.655.24 2.104 1.82 3.39 3.45 3.405 2.045.032 3.387-.803 3.403-2.441.016-1.237-.878-2.04-2.764-2.698l-1.453-.498zm10.559-6.955l-2.237-.032.016-1.285 2.237.032.048-3.598c.287-.144 1.374-.562 2.828-.69l-.048 4.336 3.85.048-.016 1.285-3.85-.048-.112 8.898c-.032 2.458.719 3.55 2.38 3.582.528 0 1.103-.129 1.726-.354l-.016 1.237c-.735.305-1.662.562-3.004.546-2.54-.032-3.946-1.333-3.898-5.316l.096-8.641zm8.579 12.93c1.949-.065 2.252-.434 2.268-1.767l.112-9.492c.016-1.317-.351-1.639-2.22-1.783l.016-.996 4.665.064c.143.562.143 2.024.143 2.586.48-1.317 1.806-2.875 3.819-2.859 1.74.016 3.051 1.092 3.019 2.698-.016 1.028-.863 1.751-1.949 1.815-.208-1.493-.847-2.585-2.061-2.601-1.486-.017-2.62 1.573-2.652 5.123l-.064 5.477c-.016 1.317.352 1.703 2.317 1.815l-.016.915-7.397-.096v-.9zm22.143-7.582c-.287.226-.879.547-1.581.74l-1.982.562c-2.108.594-2.732 1.75-2.748 2.923-.015 1.67 1.103 2.762 2.557 2.778 1.869.016 3.69-1.156 3.722-3.935l.032-3.067zm-8.18-3.822c.016-1.735 2.253-3.164 5.48-3.132 3.85.048 5.576 1.911 5.528 6.184l-.08 6.36c-.016 1.317.208 1.67 2.109 1.718l-.016.884c-.639.16-1.438.273-2.476.257-1.422-.016-2.205-.883-2.237-2.377-1.134 1.718-2.572 2.521-4.92 2.49-2.54-.033-4.41-1.687-4.378-4.016.032-2.024 1.054-3.47 4.68-4.337l2.477-.578c1.486-.37 2.03-.915 2.045-2.409.016-1.558-.959-2.859-2.876-2.875-2.268-.032-3.083 1.51-3.37 3.437-1.087-.016-1.982-.434-1.966-1.606zm15.434-1.526l-2.237-.032.016-1.285 2.237.032.047-3.598c.288-.144 1.374-.562 2.828-.69l-.048 4.336 3.851.048-.016 1.285-3.851-.048-.112 8.898c-.031 2.458.719 3.55 2.381 3.582.527 0 1.102-.129 1.725-.354l-.016 1.237c-.735.305-1.661.562-3.003.546-2.54-.032-3.946-1.333-3.898-5.316l.096-8.641zm14.793-.385c-2.732-.032-3.882 2.875-3.93 6.456-.048 3.582 1.023 6.521 3.77 6.554 2.732.032 3.883-2.875 3.931-6.457.047-3.582-1.023-6.521-3.771-6.553zm-.176 14.31c-4.249-.048-6.773-3.163-6.725-7.902.063-4.738 2.652-7.79 6.917-7.741 4.25.048 6.774 3.164 6.726 7.902-.048 4.754-2.652 7.806-6.918 7.742zm4.953 10.456c-.591 0-1.054-.337-1.054-.803v-1.59c0-.466.463-.803 1.054-.803.687 0 1.134.498 1.134 1.22v.74c.016.738-.431 1.236-1.134 1.236zm-1.821.578h.783v-.706h.031c.208.53.656.819 1.247.819 1.086 0 1.741-.868 1.741-2.281 0-1.413-.655-2.28-1.741-2.28-.591 0-1.039.272-1.247.818h-.031v-2.57h-.783v6.2zm-1.981 0H120V30.63h-.783v4.352zm.399-5.252c.32 0 .463-.176.463-.433v-.113c0-.257-.143-.433-.463-.433-.319 0-.463.176-.463.433v.113c-.016.257.128.433.463.433zm-1.182 5.252v-.658h-.623v-5.557h-.783v5.412c0 .482.272.803.815.803h.591zm-2.205 0v-.658h-2.508l2.444-3.084v-.594h-3.243v.658h2.317l-2.397 3.036v.642h3.387zm-4.952 0h.782V30.63h-.782v4.352zm.383-5.252c.32 0 .463-.176.463-.433v-.113c0-.257-.143-.433-.463-.433-.32 0-.463.176-.463.433v.113c0 .257.143.433.463.433zm-2.636 5.252l1.502-4.352h-.751l-.719 2.088-.463 1.51h-.048l-.448-1.51-.703-2.088h-.782l1.501 4.352h.911zm-6.343-1.574l-.255.82h-.048l-.224-.82-.958-2.778h-.783l1.597 4.529-.287.835h-.703v.659h.431c.655 0 .863-.177 1.071-.723l1.885-5.3h-.751l-.975 2.778zm-4.569.996c-.59 0-1.054-.337-1.054-.803v-1.59c0-.466.463-.803 1.054-.803.687 0 1.135.498 1.135 1.22v.74c0 .738-.448 1.236-1.135 1.236zm-1.821.578h.783v-.706h.032c.208.53.655.819 1.246.819 1.086 0 1.741-.868 1.741-2.281 0-1.413-.655-2.28-1.741-2.28-.591 0-1.038.272-1.246.818h-.032v-2.57h-.783v6.2z" class="fill-sub"></path><path d="M26.14 33.857l-2.444-6.73L14.062.595a.895.895 0 00-.83-.594.894.894 0 00-.847.562L6.042 16.286l-4.553-3.95a.898.898 0 00-1.486.738l.943 16.11a.905.905 0 00.527.77.918.918 0 00.927-.096l8.787-6.73 13.547 11.725a.937.937 0 00.591.225.874.874 0 00.512-.16.95.95 0 00.303-1.06zM5.323 18.07l-2.828 7.003-.575-9.942 3.403 2.939zm-1.422 8.336l2.86-7.083 3.004 2.602-5.864 4.48zM7.48 17.54l5.688-14.118 4.505 12.415-6.455 4.931L7.48 17.54zm5.144 4.465l5.704-4.369 3.674 10.103 1.262 3.47-10.64-9.204z" class="fill-sub"></path></svg>