<svg xmlns="http://www.w3.org/2000/svg" width="129" height="42" fill="currentColor"><title>Coca-Cola Logo</title><path d="M49.256 36.638c-4.773-3.075-11.25-3.614-21.696-.716-11.137 2.617-14.85 4.294-19.726.927-1.873-1.654-2.545-4.318-2.043-8.155 1.163-6.255 4.306-12.274 9.89-18.95 3.117-3.473 6.008-6.454 9.825-7.65 2.926-.752 2.652 1.548 2.299 1.876-.374 0-1.002.06-1.487.376-.393.305-1.474 1.29-1.532 2.617-.084 2.03 2.017 1.607 2.923.493.977-1.256 2.42-3.661 1.285-5.903-.476-.798-1.298-1.349-2.32-1.537-3.495-.2-6.75 1.467-9.755 3.31C10.35 7.89 5.092 14.213 2.12 21.137c-1.716 4.177-3.266 10.16-.942 15.03 1.798 3.38 5.531 5.175 9.985 4.8 3.124-.329 6.901-1.338 9.442-1.948 2.54-.61 15.545-5.08 19.818 2.7 0 0 1.42-2.759 4.972-2.818 2.919-.269 7.13.846 10.197 3.098-1.021-1.537-3.918-3.801-6.335-5.362Z"></path><path d="M28.886 10.53c-2.433-1.596-7.321 1.455-11.237 6.688-3.58 4.694-5.126 10.15-3.444 12.673 2.503 2.968 7.15-1.35 9.126-3.66l.255-.271c1.343-1.443 2.382-3.18 3.386-4.847 0 0 .924-1.525.968-1.595.57-.106 1.258-.27 2.033-.493-.011.035-2.964 4.999-2.663 7.462.094.752.022 3.498 2.703 4.33 3.573.6 6.426-2.17 8.943-4.634 0 0 .429-.41.671-.645l-.141.574c-1.046 3.637.364 4.4 1.246 4.682 2.665.775 5.85-3.097 5.86-3.097-.082 1.22-.324 2.229.962 3.038 1.214.435 2.442-.227 3.375-.85 3.363-2.37 6.073-6.08 8.261-9.286h-1.396c-.016 0-3.444 4.968-5.67 6.048-.004 0-.409.208-.642.044-.289-.247-.175-.76.004-1.122.01-.024 8.594-14.91 8.594-14.91h-4.053s-.442.716-.478.762c-.028-.023-.093-.146-.138-.205-2.51-3.473-8.196 1.87-12.477 8.065-1.648 2.382-3.746 5.064-5.922 7 0 0-3.223 2.955-4.6.832-.504-.892-.35-2.196-.065-3.052 1.603-4.565 4.366-8.708 7.51-11.207.888-.692 1.853-.892 2.331-.599.457.27.53.939.242 1.397-.733-.024-1.32.199-1.796.692-.94.985-1.266 1.936-.968 2.828 1.452 2.065 4.346-2.019 4.206-4.506-.05-.892-.526-1.737-1.236-2.148-1.059-.633-2.673-.47-3.718.036-1.399.528-3.613 2.37-4.905 3.801-1.627 1.796-4.418 3.79-5.29 3.567.285-.763 2.642-5.585.163-7.392Zm19.538 7.134c.788-1.09 3.083-4.013 3.642-4.506 1.882-1.655 2.634-.926 2.699-.41a370.9 370.9 0 0 1-5.777 9.985c.004-.011-.61.927-.61.927-.86 1.314-1.726 2.44-3.14 3.227-.201.059-.533.082-.755-.082-.266-.177-.37-.47-.34-.775.084-1.009 1.111-4.094 4.281-8.366Zm-22.046 1.89s-.036.105-.053.14c-.005 0-1.767 2.874-1.767 2.874-1.064 1.42-2.392 3.204-4.052 4.06-.492.165-1.172.27-1.519-.163-.735-.88-.356-2.1-.048-3.086l.109-.352c.882-2.394 2.282-4.506 3.644-6.466a.18.18 0 0 1 .069-.023c.003.011.009.011.01.035.856 1.642 2.459 2.405 3.658 2.758.007 0 .015.011.015.035 0 .035-.02.082-.066.187Zm1.67-3.392c-.008.024-.786 1.807-.786 1.807-.112.094-.29.047-.494 0l-.348-.059c-1.096-.34-1.922-1.067-2.177-1.936-.351-1.69 1.092-3.015 1.728-3.496.61-.423 1.559-.646 2.11-.211.34.399.468.915.468 1.478 0 .763-.235 1.62-.502 2.417ZM79.28 21.607c-.39-.845-1.318-1.385-2.307-1.326-3.21.293-6.35 2.934-7.999 6.723-.865 1.948-1.337 3.556-1.647 6.114.998-1.15 3.035-3.039 5.345-4.072 0 0 .315-2.452 1.918-4.635.607-.903 1.82-2.358 3.184-1.971 1.191.399.773 3.696-.81 6.887-1.172 2.347-2.964 4.695-4.778 6.314-1.604 1.36-3.976 3.004-6.052 1.736-1.307-.774-1.974-2.393-1.833-4.482.625-5.926 3.322-10.971 7.182-16.72 3.98-5.34 8.367-10.82 14.278-13.742 1.206-.61 2.322-.75 3.287-.375 0 0-5.548 3.05-8.193 8.695-.673 1.432-1.608 3.367-.666 5.08.492.892 1.367.963 2.07.916 3.242-.751 5.337-3.779 7.048-6.547.992-2.1 1.874-4.19 1.874-6.513 0-.282-.015-.657-.039-.939 1.55-.82 4.725.634 4.725.634 2.482.822 7.766 4.87 9.549 5.644.869-1.009 2.298-2.534 3.103-3.297l-1.165-.716c-1.865-1.138-3.835-2.218-5.776-3.285C97.173-.676 93.586.17 91.761.826c-.717.258-1.373.481-1.373.481C89.034-.17 86.812-.03 85.175.37c-5.886 1.69-11.351 5.808-17.21 12.954-4.309 5.597-6.98 10.432-8.405 15.207-1.098 3.215-1.431 7.944 1.248 10.748 2.278 2.382 5.3 1.866 7.432 1.01 4.622-2.277 8.776-7.182 10.846-12.826.5-1.678 1.054-4.048.194-5.855ZM89.908 3.924c-.612 7.017-6.066 11.136-7.416 11.464-.818.164-2.213-.2-.967-3.144 1.834-3.967 4.967-7.334 8.328-9.06.081.294.08.481.055.74ZM122.263 4.815c-2.934 1.667-5.975 2.746-9.657 2.37a56.388 56.388 0 0 0-2.929 3.556c5.167 1.314 10.645-1.608 13.701-4.388 3.232-2.805 4.889-6.336 4.889-6.336s-2.423 2.769-6.004 4.798ZM64.644 14.186l2.172-3.527h-3.849l-2.17 3.527h3.847Z"></path><path d="M112.591 36.964c-.414.282-.995.065-.778-.58.542-1.643 2.694-4.99 2.694-4.99l5.996-10.635h-4.107c-.195.321-.613 1.058-.613 1.058-.19-.317-.758-1.02-.992-1.173-1.003-.634-2.475-.334-3.491.24-4.415 2.582-7.637 7.683-10.178 11.661 0 0-2.674 4.422-4.159 4.751-1.159.094-1.04-1.467-.99-1.83.449-2.63 1.49-5.129 2.538-7.393a56.797 56.797 0 0 0 6.779-5.539c4.8-4.588 8.846-9.786 9.438-10.948 0 0-.64.13-1.396.152-3.693 5.152-11.25 12.638-13.541 13.753 1.015-2.441 7.572-14.093 13.152-19.666l.878-.846c1.358-1.325 2.765-2.687 3.861-2.91.116-.011.265 0 .394.27.049 1.033-.336 1.796-.776 2.664l-.618 1.268s.875-.165 1.45-.353c.667-1.255 1.405-2.663 1.133-4.34-.091-.54-.482-.951-.992-1.045-1.665-.317-3.479.915-4.939 1.912l-.059.035c-7.503 5.879-13.84 14.351-19.38 25.92-.401.306-1.952.67-2.216.493.547-1.126 1.236-2.64 1.58-4.283.06-.469.116-.95.116-1.42 0-1.01-.243-1.96-1.147-2.616-1.061-.528-2.372-.282-3.256.117-3.96 1.643-6.92 5.703-9.055 9.047-1.149 2.124-2.294 4.4-2.611 7.005-.224 2.041.231 3.356 1.392 4.013 1.193.61 2.696-.024 3.286-.329 4.012-2.112 6.815-6.348 9.024-10.22.088-.012 1.294-.047 2.207-.282.012 0 .017 0 .037.013-.052.175-.524 1.584-.524 1.584-1.4 4.106-2.047 6.9-.725 8.553 1.89 2.335 5.02-.082 7.565-3.274-.546 3.825 1.436 4.424 2.948 4.131 1.735-.47 3.67-2.324 4.568-3.274-.289 1.115-.21 3.11 1.369 3.31 1.082.2 1.892-.39 2.83-.894 3.362-1.83 7.386-7.931 8.431-9.695h-1.37c-1.485 2.245-3.376 5.188-5.753 6.585Zm-30.178-.408c-.213-.317-.284-.663-.29-1.038-.042-2.3 2.434-6.421 4.181-8.666h.004c.732 1.603 2.39 2.634 3.391 3.068-1.243 2.77-5.507 8.7-7.286 6.636Zm7.988-7.874c-.119.083-2.21-.621-2.614-2.557-.343-1.667.805-2.97 1.916-3.626.476-.376 1.194-.505 1.721-.318.489.33.621.916.621 1.549 0 .388-.051.787-.096 1.15 0 0-.01.071-.01.083a15.631 15.631 0 0 1-1.538 3.72Zm16.77 7.135c-.002 0-.397.352-.397.352-.564.504-1.144 1.044-1.845.774-.193-.07-.329-.328-.362-.529-.032-1.443.618-2.78 1.248-4.083l.162-.34c1.813-3.027 3.92-6.595 7.015-9.07.522-.376 1.088-.692 1.685-.446.138.129.298.352.298.575 0 .07-.063.258-.099.316-.865 1.397-1.688 2.864-2.488 4.272-1.565 2.781-3.188 5.655-5.217 8.179Z"></path></svg>