<svg xmlns="http://www.w3.org/2000/svg" width="129" height="42" fill="currentColor"><title>Coyote Logistics Logo</title><path d="M10.049 8.02c-.069-.566-.275-2.873-2.66-2.873-2.616 0-3.705 2.727-3.705 6.111 0 .978 0 5.64 3.431 5.64 1.475 0 2.886-.93 2.955-3.114h3.71c-.069.978-.159 2.5-1.475 3.86-1.454 1.497-3.299 1.836-4.8 1.836C1.84 19.48 0 15.294 0 11.228c0-5.21 2.912-8.655 7.523-8.655 3.594 0 6.115 2.183 6.115 5.456l-3.59-.009ZM23.837 2.312c1.75 0 4.16.407 5.777 2.23 1.75 1.999 2.093 4.572 2.093 6.185 0 2.384-.73 4.932-2.067 6.428-1.819 2.046-4.482 2.35-5.842 2.35-2.161 0-4.318-.681-5.82-2.25-1.797-1.91-2.024-4.637-2.024-6.138-.004-4.37 1.973-8.805 7.883-8.805ZM20.861 15.59c.497.682 1.342 1.317 2.976 1.317 1.433 0 2.41-.498 3.07-1.523.545-.819 1.116-2.093 1.116-4.717a9.566 9.566 0 0 0-.408-2.934c-.681-2.024-2.067-2.908-3.752-2.908a3.728 3.728 0 0 0-3.024 1.386c-.93 1.136-1.205 2.907-1.205 4.773-.004 1.582.249 3.332 1.227 4.606ZM35.919 2.723l3.388 7.48 3.452-7.48h3.615L40.83 13.111v5.978h-3.478v-6.013l-5.55-10.353h4.118ZM54.648 2.312c1.75 0 4.16.407 5.777 2.23 1.75 1.999 2.093 4.572 2.093 6.185 0 2.384-.73 4.932-2.068 6.428-1.818 2.046-4.481 2.35-5.845 2.35-2.162 0-4.32-.681-5.82-2.25-1.797-1.91-2.024-4.637-2.024-6.138 0-4.37 1.977-8.805 7.887-8.805ZM51.663 15.59c.497.682 1.338 1.317 2.976 1.317 1.432 0 2.41-.498 3.07-1.523.545-.819 1.116-2.093 1.116-4.717a9.57 9.57 0 0 0-.408-2.934c-.681-2.024-2.067-2.908-3.752-2.908a3.742 3.742 0 0 0-3.015 1.386c-.93 1.136-1.205 2.907-1.205 4.773-.005 1.582.248 3.332 1.218 4.606ZM68.492 5.382h-4.89V2.655h13.322v2.727h-4.89v13.72h-3.542V5.382ZM79.527 2.655h11.005v2.68h-7.475v3.912h6.999v2.684h-7v4.435h7.729v2.728H79.527V2.654ZM123.302 15.35h-14.659l3.744 3.744h12.507l3.722-3.719L113.245 0v7.866H95.859l3.744 3.744h16.215V7.87l7.484 7.48ZM2.95 25.184h3.595v13.612h7.046v2.788H2.951v-16.4ZM22.92 24.82c1.75 0 4.16.407 5.776 2.23 1.75 1.998 2.093 4.567 2.093 6.18 0 2.389-.729 4.932-2.067 6.428C26.903 41.704 24.24 42 22.876 42c-2.161 0-4.319-.682-5.82-2.251-1.797-1.909-2.024-4.637-2.024-6.138-.004-4.357 1.977-8.792 7.887-8.792Zm-2.986 13.277c.498.682 1.343 1.317 2.977 1.317 1.432 0 2.41-.497 3.07-1.523.545-.814 1.115-2.088 1.115-4.717a9.567 9.567 0 0 0-.407-2.934c-.682-2.024-2.067-2.912-3.753-2.912a3.736 3.736 0 0 0-3.019 1.39c-.93 1.136-1.205 2.912-1.205 4.777 0 1.579.249 3.329 1.222 4.602ZM44.445 30.176a3.102 3.102 0 0 0-.455-1.66c-.682-1.09-1.977-1.274-2.75-1.274-4 0-4.798 3.727-4.798 6.253 0 1.111.158 3.114 1.364 4.41.819.908 1.908 1.41 3.86 1.41 1.715 0 2.294-.214 2.684-.317V35.54h-3.178v-2.728h6.708v8.205c-1.025.339-2.706.91-6.004.91-3.753 0-5.687-.91-6.978-2.184-1.84-1.797-2.183-4.409-2.183-6.137 0-5.82 3.645-8.934 8.616-8.934 2.114 0 4.297.588 5.592 2.068 1.09 1.248 1.158 2.547 1.184 3.43l-3.662.005ZM50.886 25.115h3.526v16.486h-3.526V25.115ZM60.832 36.348c0 .772-.043 3.114 2.977 3.114 1.908 0 3.113-.91 3.113-2.295 0-1.454-1.02-1.703-3.113-2.205-3.912-.977-6.048-2.144-6.048-4.979 0-2.706 1.93-5.095 6.502-5.095 1.716 0 3.727.386 4.958 1.93.93 1.18.93 2.5.93 3.045h-3.388c-.043-.566-.227-2.5-2.659-2.5-1.638 0-2.706.888-2.706 2.226 0 1.522 1.205 1.797 3.568 2.389 2.844.681 5.64 1.453 5.64 4.661 0 2.955-2.453 5.344-7 5.344-6.295 0-6.342-4.044-6.364-5.64l3.59.005ZM76.825 27.89h-4.89v-2.728h13.322v2.728h-4.89V41.6h-3.546V27.89h.004ZM87.817 25.115h3.525v16.486h-3.525V25.115ZM103.818 30.527c-.068-.566-.274-2.886-2.659-2.886-2.616 0-3.705 2.728-3.705 6.116 0 .978 0 5.64 3.431 5.64 1.48 0 2.886-.931 2.955-3.114h3.705c-.068.978-.158 2.5-1.475 3.86-1.454 1.501-3.298 1.84-4.799 1.84-5.661 0-7.501-4.182-7.501-8.252 0-5.206 2.908-8.663 7.522-8.663 3.594 0 6.116 2.183 6.116 5.455l-3.59.005ZM113.014 36.348c0 .772-.043 3.114 2.98 3.114 1.909 0 3.114-.91 3.114-2.295 0-1.454-1.025-1.703-3.114-2.205-3.911-.977-6.047-2.144-6.047-4.979 0-2.706 1.93-5.095 6.502-5.095 1.703 0 3.727.386 4.958 1.93.93 1.18.93 2.5.93 3.045h-3.388c-.043-.566-.227-2.5-2.659-2.5-1.638 0-2.706.888-2.706 2.226 0 1.522 1.205 1.797 3.573 2.389 2.839.681 5.639 1.453 5.639 4.661 0 2.955-2.457 5.344-7.003 5.344-6.296 0-6.343-4.044-6.365-5.64l3.586.005Z"></path></svg>