<svg height="auto" width="145" viewBox="0 0 143 22" fill="black" xmlns="http://www.w3.org/2000/svg" ><g clip-path="url(#a)" class="fill-sub"><path d="M18.215 2.592c-.882-.882-1.977-1.523-3.314-1.95C13.565.213 11.988 0 10.144 0H.604v21.3h9.54c1.817 0 3.421-.214 4.757-.642 1.337-.427 2.432-1.069 3.314-1.95.882-.882 1.523-1.978 1.951-3.314.428-1.337.642-2.914.642-4.758 0-1.844-.214-3.42-.642-4.757-.428-1.336-1.069-2.431-1.95-3.287Zm-3.234 11.011c-.213.802-.56 1.443-1.042 1.924-.48.481-1.122.829-1.924 1.042-.802.214-1.764.321-2.94.321H5.868V4.436h3.207c1.176 0 2.138.107 2.94.321.802.214 1.443.561 1.924 1.042.481.481.829 1.123 1.042 1.924.214.802.321 1.764.321 2.94s-.107 2.138-.32 2.94ZM37.457 7.216c-.535-.534-1.203-.935-2.031-1.176-.829-.267-1.817-.374-2.94-.374h-8.472v3.848h8.205c.588 0 .989.134 1.256.375.24.24.374.668.374 1.229v.187h-5.906c-1.63 0-2.86.428-3.715 1.283s-1.283 2.111-1.283 3.714c0 1.604.428 2.833 1.283 3.715.855.882 2.111 1.283 3.715 1.283h11.09v-9.113c0-1.15-.133-2.111-.373-2.94-.268-.828-.669-1.496-1.203-2.031Zm-3.554 10.29h-4.49c-.374 0-.695-.108-.909-.322-.214-.213-.32-.507-.32-.882 0-.4.106-.694.32-.908.214-.214.508-.32.909-.32h4.49v2.431ZM48.709 17.13c-.214-.213-.321-.56-.321-1.095V9.514h4.81V5.666h-4.81V1.47h-5.212v4.169h-2.164v3.848h2.164v6.815c0 .909.08 1.684.268 2.325.187.642.454 1.15.855 1.55.4.401.909.695 1.55.855.641.187 1.416.268 2.325.268h5.078V17.45h-3.448c-.534 0-.882-.107-1.096-.32ZM69.554 7.216c-.535-.534-1.203-.935-2.032-1.176-.828-.267-1.817-.374-2.94-.374h-8.471v3.848h8.205c.587 0 .988.134 1.256.375.24.24.374.668.374 1.229v.187h-5.907c-1.63 0-2.859.428-3.714 1.283s-1.283 2.111-1.283 3.714c0 1.604.428 2.833 1.283 3.715.855.882 2.111 1.283 3.714 1.283H71.13v-9.113c0-1.15-.133-2.111-.374-2.94-.267-.828-.668-1.496-1.202-2.031Zm-3.582 10.29h-4.49c-.373 0-.694-.108-.908-.322-.214-.213-.32-.507-.32-.882 0-.4.106-.694.32-.908.214-.214.508-.32.909-.32h4.49v2.431ZM84.92 8.392h-3.982c-.641 0-1.149-.16-1.47-.508-.347-.348-.508-.829-.508-1.47s.16-1.122.509-1.47c.347-.347.828-.508 1.47-.508h9.54V0H79.79c-2.138 0-3.741.534-4.81 1.577-1.07 1.042-1.577 2.646-1.577 4.81 0 2.165.535 3.768 1.576 4.837 1.043 1.07 2.647 1.604 4.811 1.604h4.063c1.336 0 2.03.668 2.03 2.031s-.668 2.031-2.03 2.031H73.99v4.436h10.903c2.139 0 3.742-.534 4.838-1.63 1.095-1.096 1.657-2.699 1.657-4.837s-.562-3.742-1.657-4.81c-1.096-1.07-2.7-1.657-4.81-1.657ZM100.821 17.13c-.213-.213-.32-.56-.32-1.095V9.514h4.811V5.666h-4.811V1.47h-5.212v4.169h-2.164v3.848h2.165v6.815c0 .909.08 1.684.267 2.325.187.642.454 1.15.855 1.55.401.401.909.695 1.55.855.642.187 1.417.268 2.325.268h5.078V17.45h-3.448c-.507 0-.881-.107-1.096-.32ZM121.667 7.216c-.535-.534-1.202-.935-2.031-1.176-.829-.267-1.817-.374-2.94-.374h-8.472v3.848h8.205c.588 0 .989.134 1.256.375.24.24.374.668.374 1.229v.187h-5.906c-1.63 0-2.859.428-3.715 1.283-.855.855-1.283 2.111-1.283 3.714 0 1.604.428 2.833 1.283 3.715.856.882 2.112 1.283 3.715 1.283h11.091v-9.113c0-1.15-.134-2.111-.374-2.94-.268-.828-.669-1.496-1.203-2.031Zm-3.581 10.29h-4.49c-.374 0-.694-.108-.909-.322-.213-.213-.321-.507-.321-.882 0-.4.108-.694.321-.908.215-.214.508-.32.909-.32h4.49v2.431ZM136.419 13.416l5.772-7.75h-5.558l-3.181 4.516-3.18-4.516h-5.773l5.773 7.75-6.093 7.884h5.826l3.287-4.677 3.261 4.677h5.959l-6.093-7.884Z"></path></g><defs><clipPath id="a"><path fill="#fff" transform="translate(.604)" d="M0 0h141.935v22H0z"></path></clipPath></defs></svg>