<svg xmlns="http://www.w3.org/2000/svg" width="180" height="42" fill="currentColor"><title>Duolingo Logo</title><path d="M155.729 21c0-6.642 5.06-11.322 11.765-11.322 6.705 0 11.765 4.68 11.765 11.322 0 6.642-5.06 11.322-11.765 11.322-6.705 0-11.765-4.744-11.765-11.322Zm16.888 0c0-3.1-1.96-5.377-5.06-5.377-3.099 0-5.06 2.278-5.06 5.377 0 3.1 1.961 5.377 5.06 5.377 3.1 0 5.06-2.214 5.06-5.377Zm-21.316-5.25c.443.886.633 1.834.633 2.846 0 2.404-1.265 4.618-3.289 6.326 2.783 1.328 4.427 4.554 4.427 7.59 0 5.693-4.617 9.488-11.638 9.488s-11.639-3.732-11.639-9.488c-.063-3.163 1.645-6.072 4.428-7.59-2.087-1.708-3.289-3.922-3.289-6.326 0-4.997 3.921-8.665 10.12-8.665 3.669 0 4.744.632 6.832.632a7.093 7.093 0 0 0 4.048-1.075c.443-.253.885-.443 1.391-.443.823 0 1.265.822 1.265 1.835.19 2.213-1.201 4.174-3.289 4.87Zm-4.744 16.572c0-2.53-1.961-4.3-5.06-4.3-3.099 0-5.06 1.707-5.06 4.3 0 2.404 2.15 4.301 5.06 4.301 2.91 0 5.06-1.897 5.06-4.3Zm-9.171-13.346c.063 2.214 1.96 3.985 4.237 3.922 2.151-.064 3.796-1.771 3.922-3.922 0-2.277-1.644-3.858-4.048-3.858s-4.111 1.518-4.111 3.858Zm-10.627 2.467v7.906c0 1.518-.569 2.151-2.214 2.151h-2.214c-1.644 0-2.214-.633-2.214-2.15v-7.718c0-1.96-.316-3.352-1.012-4.237-.822-1.012-2.087-1.518-3.352-1.455-1.328-.063-2.593.506-3.479 1.455-.759.885-1.265 2.277-1.265 4.174v7.717c0 1.581-.696 2.15-2.214 2.15h-2.214c-1.518 0-2.214-.569-2.214-2.15v-17.71c0-1.013.506-1.456 1.266-1.456 1.138 0 2.719.95 3.921 2.784a9.633 9.633 0 0 1 7.148-3.163c3.226 0 5.819 1.139 7.527 3.036 1.708 1.898 2.53 4.491 2.53 8.666ZM92.223 3.605C92.223 1.581 93.93 0 95.892 0h.126c1.96.127 3.479 1.834 3.353 3.795-.127 1.961-1.835 3.48-3.796 3.353-1.897-.064-3.352-1.645-3.352-3.543Zm.443 25.744V12.714c0-1.518.569-2.214 2.213-2.214h2.214c1.645 0 2.214.633 2.214 2.214v16.635c0 1.518-.569 2.151-2.214 2.151H94.88c-1.644 0-2.213-.633-2.213-2.15Zm-11.702 0V8.476c0-5.25 2.91-8.223 5.376-8.223.76 0 1.265.506 1.265 1.455v27.641c0 1.582-.632 2.151-2.213 2.151h-2.214c-1.518 0-2.214-.57-2.214-2.15ZM53.639 21c0-6.642 5.06-11.322 11.765-11.322 6.704 0 11.765 4.68 11.765 11.322 0 6.642-5.06 11.322-11.765 11.322-6.705 0-11.765-4.744-11.765-11.322Zm16.825 0c0-3.1-1.961-5.377-5.06-5.377-3.1 0-5.06 2.278-5.06 5.377 0 3.1 1.96 5.377 5.06 5.377 3.099 0 5.06-2.214 5.06-5.377Zm-20.241-8.286v17.71c0 1.013-.506 1.456-1.265 1.456-1.139 0-2.72-.95-3.859-2.72a8.993 8.993 0 0 1-7.02 3.099 9.76 9.76 0 0 1-6.832-2.53c-1.96-1.898-3.036-4.807-3.036-8.982v-8.033c0-1.518.57-2.214 2.214-2.214h2.214c1.644 0 2.213.633 2.213 2.214v7.464c0 2.53.443 3.858 1.266 4.744.758.759 1.897 1.201 2.972 1.138 1.202 0 2.34-.442 3.163-1.328.822-.886 1.265-2.277 1.265-4.428v-7.59c0-1.582.696-2.214 2.214-2.214h2.214c1.581 0 2.277.633 2.277 2.214ZM23.657 1.708v28.717c0 1.012-.506 1.454-1.265 1.454-1.139 0-2.72-.948-3.859-2.656-1.391 1.645-4.238 3.1-7.527 3.1C4.428 32.322 0 27.514 0 21 0 14.485 4.554 9.678 11.006 9.678c2.15 0 4.238.632 6.072 1.834V8.476c0-5.25 2.973-8.223 5.377-8.223.759 0 1.202.506 1.202 1.455ZM17.078 21c0-3.226-2.277-5.377-5.123-5.377-2.847 0-5.187 2.151-5.187 5.377s2.277 5.377 5.187 5.377 5.123-2.088 5.123-5.377Z"></path></svg> 