<svg xmlns="http://www.w3.org/2000/svg" width="42" height="42" fill="currentColor"><title>GM Logo</title><path d="M5.42 0A5.42 5.42 0 0 0 0 5.42v31.16A5.42 5.42 0 0 0 5.42 42h31.16A5.42 5.42 0 0 0 42 36.58V5.42A5.42 5.42 0 0 0 36.58 0H5.42Zm0 2.71h31.16a2.71 2.71 0 0 1 2.71 2.71v31.16a2.71 2.71 0 0 1-2.71 2.71H5.42a2.71 2.71 0 0 1-2.71-2.71V5.42a2.71 2.71 0 0 1 2.71-2.71Z"></path><path d="M18.968 28.452v2.71H33.87v-2.71H18.968ZM18.968 10.839v14.564h3.048V13.55h3.049v11.854h3.048V13.55h2.032c.561 0 1.016.455 1.016 1.016v10.838h3.049V14.226a3.387 3.387 0 0 0-3.387-3.387H18.968ZM11.177 10.839a3.387 3.387 0 0 0-3.387 3.387v7.79a3.387 3.387 0 0 0 3.387 3.387h2.71v.678c0 1.31-1.213 2.37-2.71 2.37H9.484v2.71h1.693c3.18 0 5.758-2.274 5.758-5.08V10.839h-5.758Zm.678 2.71h2.032v9.145h-2.032a1.016 1.016 0 0 1-1.016-1.016v-7.113c0-.561.455-1.016 1.016-1.016Z"></path></svg>