<svg xmlns="http://www.w3.org/2000/svg" width="163" height="42" fill="currentColor"><title>Mercado Libre Logo</title><path d="M69.8 22.427h.893v17.846h-3.378v-15.68c0-.509 1.084-2.166 2.486-2.166ZM88.285 26.379c-1.657 0-2.932.7-3.824 2.103v-6.055h-.383c-1.657 0-2.55.892-2.995 1.657v-.128 10.262c0 4.016 2.103 6.055 6.31 6.055 4.206-.063 6.246-2.358 6.246-6.82 0-4.653-1.785-6.947-5.354-7.074Zm-1.02 10.963c-1.912 0-2.868-1.403-2.804-4.08.127-2.613 1.02-3.888 2.868-3.888 1.848 0 2.74 1.275 2.868 3.888 0 2.741-1.02 4.08-2.932 4.08ZM95.615 33.262c.127-4.335 2.23-6.757 6.756-6.757h1.02v3.506h-1.593c-1.913 0-2.741 1.211-2.741 3.187v7.011h-3.442v-6.947ZM108.745 36.767c.574.51 1.339.765 2.358.765.702 0 1.339-.19 1.849-.573.51-.383.829-.765.956-1.148h3.187c-.51 1.594-1.275 2.677-2.359 3.379-1.083.7-2.294 1.02-3.824 1.02a7.838 7.838 0 0 1-2.804-.51c-.829-.32-1.53-.829-2.104-1.403a6.87 6.87 0 0 1-1.338-2.167c-.319-.829-.447-1.784-.447-2.804 0-.956.192-1.913.511-2.741.318-.829.764-1.594 1.338-2.167.574-.638 1.275-1.084 2.104-1.466.828-.383 1.72-.51 2.74-.51 1.084 0 2.104.191 2.932.637.829.447 1.53 1.02 2.04 1.721.51.701.892 1.53 1.147 2.486.255.892.319 1.912.255 2.932h-9.497c.127 1.211.446 2.04.956 2.55Zm4.079-6.883c-.446-.446-1.083-.701-1.976-.701-.573 0-1.083.127-1.466.319-.382.19-.701.445-.892.7a3.207 3.207 0 0 0-.51.893c-.127.319-.127.637-.191.892h5.864c-.064-.956-.383-1.657-.829-2.103ZM77.704 22.427h-3.378v3.06h3.378v-3.06ZM77.704 27.016h-3.378V40.21h3.378V27.016ZM158.588 15.351a2.983 2.983 0 0 1-2.294 1.02 2.987 2.987 0 0 1-2.295-1.02c-.574-.637-.765-1.72-.765-2.996 0-1.338.255-2.294.765-2.931a2.987 2.987 0 0 1 2.295-1.02c.956 0 1.721.382 2.294 1.02.574.637.765 1.72.765 2.931s-.191 2.231-.765 2.996Zm2.677-7.903c-1.02-1.339-2.74-2.104-4.971-2.104-2.167 0-3.952.638-4.972 2.104-1.02 1.338-1.657 2.995-1.657 4.844 0 1.912.574 3.57 1.657 4.844 1.02 1.338 2.741 2.04 4.972 2.04 2.167 0 3.951-.638 4.971-2.04 1.02-1.339 1.658-2.996 1.658-4.844.063-1.785-.511-3.442-1.658-4.844ZM144.693 15.352c-.446.637-1.211 1.02-2.167 1.02-.956 0-1.721-.383-2.103-1.02-.446-.765-.638-1.721-.638-2.996 0-1.147.192-2.04.638-2.74.446-.766 1.147-1.148 2.167-1.148.637 0 1.211.191 1.721.573.765.638 1.211 1.913 1.211 3.57-.191 1.147-.319 2.103-.829 2.74Zm3.952-13.895s-3.442-.383-3.442 2.358v3.633c-.382-.574-.828-1.02-1.529-1.466-.574-.382-1.339-.446-2.104-.446-1.721 0-3.059.637-4.143 1.912-1.02 1.211-1.529 3.06-1.529 5.354 0 1.912.446 3.57 1.529 4.653 1.02 1.211 3.06 1.72 4.844 1.72 6.311 0 6.183-5.353 6.183-5.353l.191-12.365ZM131.691 13.758c0 1.148-.383 1.912-.956 2.358-.638.383-1.339.638-2.04.638-.446 0-.829-.064-1.147-.383-.319-.318-.446-.637-.446-1.21 0-.638.255-1.148.764-1.467.256-.19.829-.382 1.53-.446l.765-.19c.382-.065.638-.192.956-.192.191-.064.446-.191.638-.255l-.064 1.147Zm1.721-7.457c-1.147-.574-2.358-.829-3.824-.829-2.168 0-3.761.574-4.654 1.721-.573.765-.828 1.657-.955 2.74h3.25c.064-.445.255-.828.446-1.146.383-.383.956-.574 1.721-.574.765 0 1.211.064 1.658.255.382.191.573.574.573 1.147 0 .446-.255.765-.765.956-.255.064-.765.191-1.338.255l-1.148.064c-1.338.191-2.294.446-2.995.829-1.211.637-1.849 1.912-1.849 3.441 0 1.212.383 2.168 1.148 2.869.765.637 1.72.956 2.932 1.02 7.457.254 7.393-3.952 7.393-4.78V9.423c.064-1.402-.446-2.55-1.593-3.123ZM116.521 8.404c.829 0 1.466.255 1.912.765.255.382.446.828.446 1.338h3.633c-.191-1.848-.828-3.187-1.912-3.824-1.019-.765-2.485-1.02-4.207-1.02-2.039 0-3.633.574-4.78 1.849-1.147 1.274-1.721 2.995-1.721 5.162 0 2.04.447 3.57 1.53 4.78 1.02 1.212 2.677 1.85 4.844 1.85 2.167 0 3.824-.766 4.972-2.168.637-.956 1.019-1.912 1.147-2.996h-3.633c-.064.638-.255 1.211-.637 1.657-.383.383-.957.638-1.849.638-1.147 0-2.04-.574-2.358-1.657a7.135 7.135 0 0 1-.383-2.295c0-.956.064-1.848.383-2.358.574-1.148 1.338-1.721 2.613-1.721ZM108.936 5.536c-7.584 0-7.075 6.692-7.075 6.692v6.757h3.442v-6.31c0-1.02.064-1.849.383-2.295.446-.829 1.338-1.339 2.74-1.339h.383c.191 0 .382 0 .573.064V5.663h-.254c-.064-.127-.064-.127-.192-.127ZM91.854 9.042c.447-.446 1.148-.765 2.04-.765.765 0 1.466.191 2.04.637.573.446.828 1.148.828 2.04h-5.864c.191-.765.447-1.402.956-1.912Zm4.59 6.31a.77.77 0 0 1-.447.446c-.446.382-1.147.446-1.912.446-.765 0-1.338-.064-1.848-.446-.829-.446-1.339-1.466-1.339-2.677h9.434c0-1.147 0-2.04-.064-2.55-.191-1.02-.446-1.912-1.02-2.677-.574-.828-1.339-1.53-2.167-1.912-.829-.382-1.912-.573-3.06-.573-1.912 0-3.441.573-4.589 1.848-1.147 1.211-1.848 2.932-1.848 5.163 0 2.358.637 4.143 2.04 5.163 1.338 1.02 2.868 1.657 4.589 1.657 2.103 0 3.76-.637 4.844-1.912.637-.638 1.02-1.339 1.147-2.04l-3.76.064ZM86.118 18.921H82.93v-7.84c0-.764-.191-2.358-2.295-2.358-1.338 0-2.358.956-2.358 2.358v7.84h-3.187v-7.84c0-.764-.19-2.358-2.294-2.358-1.339 0-2.295.956-2.295 2.358v7.84h-3.187v-7.776c0-3.25 2.103-5.736 5.418-5.736 1.657 0 2.996.637 3.951 1.848.957-1.147 2.295-1.848 3.952-1.848 3.442 0 5.418 2.358 5.418 5.736l.064 7.776Z"></path><path fill-rule="evenodd" d="M30.34 0c16.763 0 30.339 8.923 30.339 19.823v1.147c0 11.6-11.792 20.97-30.34 20.97C11.855 41.94 0 32.57 0 20.97v-1.147C0 8.923 13.576 0 30.34 0Zm.127 38.434c16.062 0 29.128-8.35 29.128-18.611C59.595 9.56 46.53 1.21 30.467 1.21c-16.062 0-29.129 8.35-29.129 18.612 0 10.262 13.067 18.611 29.129 18.611Z" clip-rule="evenodd"></path><path d="M46.657 21.798c-2.869-2.485-9.498-8.286-11.346-9.624-1.02-.765-1.72-1.211-2.358-1.339-.255-.063-.638-.191-1.148-.191-.446 0-.956.064-1.465.255-1.148.383-2.295 1.275-3.442 2.167l-.064.064c-1.02.829-2.104 1.657-2.932 1.848-.383.064-.701.128-1.084.128-.892 0-1.72-.255-2.04-.638-.063-.063 0-.19.128-.318l2.55-2.741c1.976-1.976 3.824-3.824 8.158-3.952h.191c2.677 0 5.354 1.211 5.673 1.339 2.55 1.21 5.099 1.848 7.712 1.848 2.741 0 5.546-.701 8.478-2.04-.32-.255-.701-.573-1.02-.828-2.613 1.147-5.036 1.657-7.458 1.657-2.422 0-4.844-.574-7.202-1.72-.127-.065-3.06-1.467-6.183-1.467h-.254c-3.634.064-5.673 1.339-7.012 2.486-1.338 0-2.486.382-3.505.637-.893.255-1.721.446-2.486.446h-.956c-.893 0-5.354-1.083-8.86-2.485-.382.255-.701.51-1.083.765 3.696 1.53 8.222 2.676 9.624 2.804.383 0 .829.064 1.275.064.956 0 1.848-.255 2.804-.51.574-.128 1.148-.319 1.721-.446l-.51.51-2.55 2.804c-.19.191-.637.765-.382 1.402.128.255.383.51.701.765.638.383 1.721.701 2.741.701.383 0 .765-.063 1.084-.127 1.083-.255 2.23-1.147 3.378-2.104.956-.764 2.294-1.72 3.314-2.04.319-.063.638-.127.956-.127h.255c.701.064 1.339.32 2.55 1.211 2.103 1.594 11.473 9.752 11.537 9.816 0 0 .573.51.573 1.402 0 .447-.318.893-.764 1.211a2.254 2.254 0 0 1-1.212.383c-.637 0-1.083-.319-1.083-.319s-3.251-2.932-4.398-3.952c-.191-.19-.383-.318-.574-.318-.127 0-.191.063-.255.127-.191.255 0 .574.255.765l3.76 3.76s.447.447.51 1.02c0 .638-.254 1.148-.892 1.53a2.246 2.246 0 0 1-1.338.446c-.574 0-.956-.255-1.084-.319l-.574-.51c-.955-.955-1.975-1.975-2.74-2.549-.192-.127-.383-.319-.574-.319-.064 0-.191 0-.255.128-.064.064-.127.255.064.574.064.127.191.19.191.19l2.74 3.06s.575.701.065 1.275l-.128.128-.255.255c-.446.382-1.083.446-1.338.446h-.383c-.255-.064-.446-.128-.573-.255-.128-.192-1.53-1.53-2.677-2.486-.128-.128-.32-.255-.51-.255a.483.483 0 0 0-.255.127c-.191.255.127.638.255.765l2.358 2.55s0 .063-.064.19c-.064.128-.382.384-1.21.51h-.32c-.892 0-1.784-.445-2.294-.7a3.78 3.78 0 0 0 .319-1.466 3.428 3.428 0 0 0-3.442-3.442h-.128c.064-.892-.063-2.55-1.784-3.25-.51-.192-.956-.32-1.466-.32-.383 0-.701.064-1.084.192-.382-.701-.956-1.211-1.72-1.466a4.416 4.416 0 0 0-1.276-.191c-.7 0-1.338.19-1.912.637a2.948 2.948 0 0 0-4.334-.255c-.701-.574-3.57-2.358-11.282-4.143-.382-.064-1.21-.319-1.72-.51-.064.383-.128.829-.192 1.275 0 0 1.403.319 1.721.382 7.84 1.721 10.453 3.57 10.9 3.888a3.609 3.609 0 0 0-.192 1.148 2.924 2.924 0 0 0 2.932 2.932c.191 0 .383 0 .574-.064.255 1.21 1.02 2.103 2.23 2.55.383.127.702.19 1.02.19.192 0 .447 0 .702-.063.19.573.7 1.274 1.848 1.72a2.5 2.5 0 0 0 1.147.256c.319 0 .638-.064.893-.192.51 1.275 1.784 2.168 3.187 2.168.956 0 1.848-.383 2.485-1.084.574.319 1.721.893 2.932.893h.446c1.212-.128 1.721-.638 1.976-.957.064-.063.064-.127.128-.191.255.064.574.128.956.128.637 0 1.275-.191 1.912-.702.637-.446 1.084-1.083 1.084-1.657.19.064.446.064.637.064.637 0 1.338-.191 1.976-.637 1.211-.765 1.402-1.849 1.402-2.486.191.064.447.064.638.064.637 0 1.275-.192 1.848-.574.765-.51 1.21-1.211 1.275-2.04.064-.573-.128-1.147-.383-1.657 2.04-.892 6.629-2.55 12.11-3.824 0-.446-.063-.829-.19-1.275-6.566 1.402-11.474 3.506-12.684 4.08ZM28.236 32.443c-1.275 0-2.294-1.02-2.358-2.295 0-.127 0-.382-.255-.382-.128 0-.191.063-.319.127-.255.255-.637.51-1.147.51-.255 0-.51-.064-.765-.191-1.339-.574-1.402-1.466-1.339-1.849 0-.127 0-.19-.063-.255l-.064-.063h-.064c-.064 0-.127 0-.255.127-.382.255-.765.383-1.147.383-.191 0-.446-.064-.637-.128-1.785-.701-1.658-2.358-1.53-2.868 0-.128 0-.191-.064-.255l-.127-.128-.128.128c-.382.319-.828.51-1.275.51a1.85 1.85 0 0 1-1.848-1.849 1.85 1.85 0 0 1 1.848-1.848c.893 0 1.721.701 1.849 1.593l.064.51.255-.446c0-.064.764-1.21 2.167-1.147.255 0 .51.064.828.127 1.084.319 1.275 1.339 1.275 1.721 0 .255.191.255.191.255.064 0 .191-.064.191-.127a1.876 1.876 0 0 1 1.339-.574c.319 0 .637.064 1.02.255 1.72.765.956 2.932.956 2.996-.128.382-.191.51 0 .637h.127c.064 0 .192 0 .319-.064.255-.063.574-.19.892-.19 1.275 0 2.358 1.083 2.358 2.358a2.279 2.279 0 0 1-2.294 2.422Z"></path></svg>