<svg fill="black" height="auto" width="140px" xmlns="http://www.w3.org/2000/svg" viewBox="0 0 195 48"><path d="M31.44 31.084c-3.126 1.662-6.625 2.494-10.497 2.496a24.095 24.095 0 0 1-5.554-.663 20.59 20.59 0 0 1-4.993-1.833.705.705 0 0 1-.357-.663.676.676 0 0 1 .255-.554l10.24-8.415a.88.88 0 0 1 .409-.153.554.554 0 0 1 .408.153l10.242 8.456a.74.74 0 0 1 .255.51.763.763 0 0 1-.408.662v.004ZM6.93 28.68a13.775 13.775 0 0 1-2.573-3.159 9.098 9.098 0 0 1-1.292-4.178.607.607 0 0 1 .612-.61h13.036a.369.369 0 0 1 .307.127.433.433 0 0 1 .101.279.488.488 0 0 1-.153.358l-8.862 7.235c-.16.12-.353.19-.553.203a1.107 1.107 0 0 1-.612-.255h-.01Zm31.858-7.938a9.58 9.58 0 0 1-1.043 4.33 12.018 12.018 0 0 1-2.93 3.719.778.778 0 0 1-.554.255 1.033 1.033 0 0 1-.554-.203l-11.413-9.529a.692.692 0 0 1-.205-.509V8.817a.78.78 0 0 1 .205-.535.649.649 0 0 1 .51-.229h.101c2.797.165 5.535.875 8.06 2.088 2.428 1.189 4.335 2.717 5.724 4.586 1.388 1.868 2.084 3.872 2.088 6.013l.01.002ZM14.93 13.453 3.364 7.235a.755.755 0 0 1-.408-.66.78.78 0 0 1 .254-.555 15.22 15.22 0 0 1 3.755-2.274c1.3-.58 2.654-1.03 4.042-1.346.237-.04.479-.03.712.026a.743.743 0 0 1 .359.434l3.821 10.292a.502.502 0 0 1-.026.356.336.336 0 0 1-.33.154.718.718 0 0 1-.408-.102l-.205-.107ZM20.943 48c2.556.008 5.098-.37 7.541-1.12a21.786 21.786 0 0 0 6.471-3.211c2.074-1.563 3.612-3.33 4.615-5.3 1.004-1.97 1.505-4.248 1.505-6.831V20.74c0-2.718-.909-5.224-2.727-7.518-1.818-2.294-4.265-4.117-7.342-5.468-3.077-1.354-6.431-2.03-10.063-2.03a1.228 1.228 0 0 0-1.173 1.171l.104 11.16a.45.45 0 0 1-.51.51h-1.019l-.103-4.69a3.608 3.608 0 0 0-.2-1.136l-2.496-6.98-1.632-4.179A2.293 2.293 0 0 0 13.15.458 2.03 2.03 0 0 0 11.826 0a2.35 2.35 0 0 0-.553.052 24.51 24.51 0 0 0-6.04 2.03 16.31 16.31 0 0 0-4.66 3.362 2.297 2.297 0 0 0-.555 1.529v6.522a3.01 3.01 0 0 0 .357 1.529c.212.348.5.644.842.866.523.316 1.08.573 1.661.764l4.985 1.887H2.09c-.85 0-1.274.476-1.274 1.427v11.566c0 2.585.5 4.862 1.503 6.831 1.002 1.97 2.54 3.736 4.615 5.3a21.784 21.784 0 0 0 6.47 3.21A25.383 25.383 0 0 0 20.944 48m164.834-23.184c-2.921-.747-4.583-1.206-4.984-1.377-.577-.272-.866-.697-.866-1.274 0-.442.229-.824.687-1.146.458-.323 1.112-.484 1.962-.484 1.222 0 2.521.33 3.897.993a13.92 13.92 0 0 1 3.853 2.841l2.788-6.18c-1.087-1.089-2.615-2.023-4.586-2.805a16.98 16.98 0 0 0-6.317-1.17c-2.888 0-5.215.721-6.982 2.165-1.768 1.444-2.651 3.351-2.65 5.723 0 2.005.629 3.601 1.885 4.79 1.257 1.187 3.38 2.171 6.369 2.953.238.069.73.188 1.477.356a33.9 33.9 0 0 1 3.567 1.02c.68.237 1.019.679 1.019 1.325 0 .476-.247.858-.738 1.146-.491.288-1.215.434-2.166.434a12.97 12.97 0 0 1-4.739-.892c-1.528-.594-3.138-1.71-4.368-2.832l-2.919 6.22c1.088 1.156 2.744 2.133 4.968 2.93a21.535 21.535 0 0 0 7.313 1.198c3.159 0 5.588-.677 7.287-2.03 1.698-1.354 2.547-3.308 2.547-5.86 0-2.208-.676-3.931-2.03-5.17-1.354-1.238-3.446-2.197-6.277-2.878m-15.334 2.958c0-2.585-.467-4.903-1.402-6.955a11.255 11.255 0 0 0-4.043-4.84c-1.767-1.172-3.859-1.758-6.277-1.758-2.445 0-4.611.569-6.496 1.706a11.713 11.713 0 0 0-4.409 4.765c-1.052 2.038-1.578 4.365-1.578 6.98 0 4.01 1.138 7.195 3.413 9.554 2.276 2.36 5.435 3.54 9.478 3.543a16.733 16.733 0 0 0 6.191-1.097 13.633 13.633 0 0 0 4.713-3.031l-2.893-5.17a20.274 20.274 0 0 1-3.783 2.104 10.07 10.07 0 0 1-3.718.662c-1.632 0-2.957-.348-3.975-1.045-1.018-.696-1.663-1.742-1.936-3.138h16.661l.054-2.28Zm-16.706-3.159a5.248 5.248 0 0 1 1.757-2.828c.899-.765 2.011-1.147 3.338-1.147s2.414.4 3.26 1.198a4.308 4.308 0 0 1 1.428 2.77l-9.783.007Zm-8.989-2.826c.402-2.242 1.864-4.468 3.426-6.093-1.222-.984-2.717-1.477-4.484-1.477-2.751 0-4.789 1.376-6.115 4.127h-.101l-.663-3.617h-5.908v25.477h7.49v-12.89c0-1.902.391-3.379 1.173-4.43a3.73 3.73 0 0 1 3.158-1.581 4.09 4.09 0 0 1 2.024.484Zm-19.758-4.893c-1.799-1.784-4.228-2.677-7.287-2.677a15.34 15.34 0 0 0-6.393 1.324c-1.954.885-3.542 2.024-4.765 3.415l3.189 6.479a11.514 11.514 0 0 1 3.461-3.447 7.94 7.94 0 0 1 4.204-1.198c1.019 0 1.792.178 2.319.535.526.357.789.807.788 1.35a1.422 1.422 0 0 1-.713 1.292c-.476.29-1.478.604-3.005.943l-2.651.554c-2.751.545-4.747 1.463-5.987 2.753-1.241 1.29-1.861 3.044-1.859 5.263 0 2.208.676 3.974 2.03 5.299 1.354 1.324 3.139 1.987 5.354 1.988a9.048 9.048 0 0 0 4.407-1.045 7.346 7.346 0 0 0 2.93-2.828h.103l.663 3.312h5.908V24c.003-2.954-.895-5.323-2.696-7.108Zm-4.43 14.14c0 1.02-.476 1.868-1.428 2.548a5.63 5.63 0 0 1-3.361 1.019c-.682 0-1.215-.135-1.607-.408a1.39 1.39 0 0 1-.585-1.222 1.673 1.673 0 0 1 .663-1.352c.442-.355 1.206-.653 2.293-.891 2.241-.51 3.549-1.104 3.923-1.784h.102v2.09ZM95.232 14.215a9.784 9.784 0 0 0-4.56 1.095 9.014 9.014 0 0 0-3.39 2.982h-.101V7.233h-7.49v32.97h7.49V27.509c.012-.99.184-1.97.51-2.904a6.225 6.225 0 0 1 1.681-2.624c.782-.73 1.784-1.096 3.006-1.096 2.547 0 3.821 1.715 3.821 5.147v14.165h7.492v-17.17c0-2.548-.748-4.654-2.243-6.32-1.495-1.665-3.567-2.495-6.216-2.492ZM68.74 24.816c-2.923-.747-4.588-1.206-4.994-1.377-.577-.272-.866-.697-.866-1.274 0-.442.229-.824.687-1.146.458-.323 1.112-.484 1.962-.484 1.222 0 2.521.33 3.897.993a13.942 13.942 0 0 1 3.863 2.841l2.787-6.18c-1.086-1.089-2.615-2.023-4.586-2.805a16.985 16.985 0 0 0-6.317-1.169c-2.888 0-5.215.722-6.982 2.166-1.768 1.444-2.65 3.351-2.65 5.723 0 2.005.629 3.601 1.885 4.789 1.257 1.188 3.38 2.172 6.371 2.954.237.069.73.188 1.477.356a33.9 33.9 0 0 1 3.567 1.02c.68.237 1.02.679 1.02 1.325 0 .476-.248.858-.74 1.146-.49.288-1.214.434-2.165.434a12.94 12.94 0 0 1-4.739-.892c-1.528-.594-3.138-1.711-4.368-2.832l-2.919 6.22c1.088 1.156 2.744 2.132 4.968 2.93a21.531 21.531 0 0 0 7.313 1.198c3.16 0 5.588-.677 7.287-2.03 1.698-1.355 2.547-3.308 2.547-5.86 0-2.208-.676-3.932-2.03-5.17-1.354-1.238-3.443-2.197-6.268-2.878" class="fill-sub"></path></svg>