<svg xmlns="http://www.w3.org/2000/svg" width="148" height="42" fill="currentColor"><title>Shopify Logo</title><path d="M50.828 23.355c-1.252-.692-1.91-1.252-1.91-2.042 0-1.021.89-1.647 2.306-1.647 1.647 0 3.096.692 3.096.692l1.153-3.525s-1.054-.824-4.184-.824c-4.348 0-7.378 2.504-7.378 5.996 0 1.976 1.416 3.491 3.294 4.579 1.515.856 2.042 1.482 2.042 2.371 0 .956-.758 1.713-2.174 1.713-2.108 0-4.085-1.087-4.085-1.087l-1.219 3.525s1.845 1.219 4.909 1.219c4.48 0 7.675-2.207 7.675-6.16.066-2.174-1.581-3.69-3.525-4.81Zm17.854-7.412c-2.207 0-3.92 1.055-5.27 2.636l-.066-.033 1.91-10.014h-4.974L55.44 33.995h4.974l1.647-8.696c.659-3.294 2.339-5.304 3.92-5.304 1.12 0 1.548.758 1.548 1.845 0 .692-.066 1.515-.23 2.207l-1.878 9.981h4.974l1.944-10.277c.23-1.088.362-2.372.362-3.262.033-2.866-1.45-4.546-4.019-4.546Zm15.318 0c-5.995 0-9.981 5.403-9.981 11.431 0 3.854 2.372 6.984 6.852 6.984 5.896 0 9.849-5.271 9.849-11.431.033-3.59-2.042-6.983-6.72-6.983Zm-2.438 14.56c-1.713 0-2.404-1.449-2.404-3.26 0-2.867 1.482-7.511 4.183-7.511 1.779 0 2.339 1.515 2.339 2.997 0 3.097-1.482 7.774-4.118 7.774Zm21.939-14.56c-3.36 0-5.27 2.965-5.27 2.965h-.066l.296-2.668h-4.414c-.23 1.812-.626 4.546-1.021 6.621l-3.459 18.25h4.974l1.384-7.38h.099s1.02.66 2.931.66c5.864 0 9.685-5.996 9.685-12.057 0-3.393-1.482-6.39-5.139-6.39Zm-4.743 14.66c-1.285 0-2.043-.725-2.043-.725l.824-4.645c.593-3.097 2.207-5.172 3.92-5.172 1.515 0 1.976 1.417 1.976 2.734 0 3.196-1.91 7.807-4.677 7.807Zm16.997-21.84c-1.581 0-2.866 1.251-2.866 2.898 0 1.482.923 2.504 2.339 2.504h.066c1.548 0 2.899-1.054 2.932-2.9.033-1.449-.955-2.503-2.471-2.503ZM108.772 33.995h5.007l3.393-17.656h-5.04l-3.36 17.656ZM129.821 16.273h-3.459l.165-.824c.296-1.713 1.285-3.228 2.965-3.228.889 0 1.581.264 1.581.264l.988-3.887s-.856-.429-2.701-.429c-1.779 0-3.525.495-4.875 1.647-1.713 1.45-2.504 3.525-2.899 5.633l-.132.824h-2.306l-.725 3.755h2.306l-2.635 13.934h4.974l2.635-13.934h3.426l.692-3.755Zm11.991.066s-3.13 7.84-4.513 12.122h-.066c-.099-1.383-1.219-12.122-1.219-12.122h-5.238l2.998 16.207c.066.362.033.593-.099.823-.593 1.12-1.548 2.208-2.701 2.998-.922.692-1.976 1.12-2.8 1.417L129.558 42c1.021-.23 3.096-1.054 4.875-2.701 2.273-2.141 4.381-5.402 6.522-9.883l6.094-13.077h-5.237ZM23.718 40.946l12.32-2.668S31.59 8.202 31.558 8.005a.384.384 0 0 0-.363-.33c-.164 0-3.294-.23-3.294-.23S25.727 5.27 25.463 5.04a.689.689 0 0 0-.197-.132l-1.548 36.038Zm1.02-36.104c-.032 0-.098.033-.13.033-.034 0-.495.132-1.22.363-.725-2.109-2.01-4.052-4.282-4.052h-.198C18.25.362 17.458 0 16.768 0c-5.305 0-7.84 6.621-8.632 9.981-2.042.626-3.524 1.087-3.689 1.153-1.153.362-1.186.395-1.318 1.482C2.998 13.408 0 36.632 0 36.632l23.158 4.348 1.58-36.137Zm-6.027 1.614v.231c-1.285.395-2.702.824-4.085 1.252.79-3.03 2.273-4.513 3.557-5.073.33.856.528 2.01.528 3.59Zm-2.109-5.04c.23 0 .462.066.692.231-1.68.79-3.525 2.8-4.282 6.819-1.12.362-2.207.692-3.228.988.889-3.063 3.03-8.038 6.818-8.038Zm.923 17.887s-1.384-.724-3.03-.724c-2.471 0-2.57 1.548-2.57 1.943 0 2.109 5.534 2.932 5.534 7.906 0 3.92-2.47 6.424-5.83 6.424-4.02 0-6.062-2.504-6.062-2.504l1.087-3.557s2.108 1.811 3.887 1.811c1.153 0 1.647-.922 1.647-1.58 0-2.768-4.546-2.9-4.546-7.445 0-3.822 2.734-7.544 8.302-7.544 2.14 0 3.195.626 3.195.626l-1.614 4.644Zm2.108-16.668c1.186.132 1.944 1.483 2.438 2.998-.593.198-1.252.395-1.977.626V5.83c0-1.285-.165-2.34-.461-3.196Z"></path></svg>