<svg xmlns="http://www.w3.org/2000/svg" width="101" height="42" fill="currentColor"><title>Stripe Logo</title><path fill-rule="evenodd" d="M100.935 21.701c0-7.178-3.477-12.841-10.122-12.841-6.673 0-10.71 5.663-10.71 12.785 0 8.44 4.766 12.7 11.607 12.7 3.337 0 5.86-.756 7.767-1.822v-5.607c-1.907.953-4.094 1.542-6.87 1.542-2.72 0-5.13-.953-5.439-4.262h13.71c0-.364.057-1.822.057-2.495Zm-13.85-2.664c0-3.168 1.934-4.485 3.7-4.485 1.71 0 3.533 1.317 3.533 4.485h-7.234ZM69.28 8.86c-2.747 0-4.514 1.29-5.495 2.187l-.364-1.739h-6.169V42l7.01-1.486.028-7.934c1.009.729 2.495 1.766 4.962 1.766 5.019 0 9.59-4.037 9.59-12.925C78.812 13.29 74.186 8.86 69.28 8.86Zm-1.682 19.318c-1.654 0-2.635-.59-3.308-1.318l-.028-10.402c.729-.813 1.738-1.374 3.336-1.374 2.552 0 4.318 2.86 4.318 6.533 0 3.757-1.738 6.56-4.318 6.56ZM47.608 7.206l7.037-1.514V0l-7.038 1.486v5.72Z" clip-rule="evenodd"></path><path d="M54.645 9.336h-7.038v24.533h7.038V9.336Z"></path><path fill-rule="evenodd" d="m40.065 11.411-.448-2.075H33.56V33.87h7.009V17.243c1.654-2.16 4.458-1.767 5.327-1.458V9.336C45 9 41.72 8.383 40.065 11.411ZM26.047 3.252 19.206 4.71l-.028 22.458c0 4.15 3.112 7.205 7.261 7.205 2.3 0 3.982-.42 4.907-.925v-5.691c-.897.364-5.327 1.654-5.327-2.496v-9.953h5.327V9.336h-5.327l.028-6.084ZM7.093 16.458c0-1.093.898-1.514 2.384-1.514 2.13 0 4.822.645 6.953 1.794V10.15c-2.327-.926-4.626-1.29-6.953-1.29C3.785 8.86 0 11.832 0 16.794c0 7.739 10.654 6.505 10.654 9.842 0 1.29-1.121 1.71-2.691 1.71-2.327 0-5.3-.953-7.655-2.243v6.673a19.437 19.437 0 0 0 7.655 1.598c5.831 0 9.84-2.888 9.84-7.907-.027-8.355-10.71-6.869-10.71-10.009Z" clip-rule="evenodd"></path></svg>